<svg width="58" height="35" viewBox="0 0 58 35" fill="none" xmlns="http://www.w3.org/2000/svg">
<rect x="7.82581" width="40.9697" height="25.6234" rx="3" fill="#0F2D47"/>
<path d="M57.7334 10.201L53.536 9.58687C53.536 9.58687 49.3845 6.26822 47.3332 10.3043C46.9559 11.046 46.9244 12.7549 46.9244 12.7549C47.194 13.0605 48.3718 25.5962 23.8847 22.4698C19.8667 21.9561 12.4259 19.2946 8.03917 22.497C5.81569 19.309 5.34087 14.7134 5.34087 14.7134C4.32954 18.3448 5.95914 22.0322 6.82558 23.6291C6.49421 24.028 6.18148 24.4641 5.91036 24.9763C5.64068 25.4857 5.27345 26.2533 5.1343 27.6838C5.1343 27.6838 2.4446 27.0195 2.53497 29.473C2.53497 29.473 2.66273 32.1488 2.9941 33.5276C-0.94323 33.5276 0.0990363 33.8654 0.19554 34.1067C0.401722 34.6223 11.4662 35.0083 26.3205 35.0083C41.1748 35.0083 53.2175 34.5593 53.2175 34.004C52.5961 33.3526 55.9736 33.5759 46.7881 33.3526C46.6145 33.0843 46.3405 32.806 45.8714 32.5434C45.8714 32.5434 44.0482 30.3496 45.6892 30.1918C45.6892 30.1918 46.5557 30.2937 47.3317 29.0655C47.3317 29.0655 48.0633 28.6063 48.4306 29.219C48.4306 29.219 48.3861 29.988 47.699 30.1918C47.699 30.1918 47.1969 31.6753 48.5195 32.6453C48.5195 32.6453 49.9339 32.1847 50.1635 29.5777C50.1635 29.5777 50.6655 27.6321 48.8824 27.0711C48.815 27.0467 48.7863 27.041 48.729 27.0223C48.9657 26.5546 50.8233 22.7811 50.4834 19.8126C50.4834 19.8126 53.219 20.9389 52.4443 17.6173C52.4443 17.6173 50.9367 14.9056 52.3999 14.1409C52.3999 14.1409 55.2301 14.7033 56.9128 12.4521C56.9142 12.4493 58.6486 10.6056 57.7334 10.201ZM4.63939 32.4874C4.63939 32.4874 3.90779 29.8833 4.91338 30.186C4.91338 30.186 6.32494 30.6954 7.101 30.5433C7.101 30.5433 7.38217 32.1216 8.21275 33.2565C7.2215 33.2895 6.2819 33.3297 5.43554 33.3655C5.32222 33.0786 5.09126 32.7629 4.63939 32.4874ZM26.3248 32.9953C21.086 32.9953 16.2116 33.0527 12.0745 33.1474C12.0156 32.849 11.8191 32.5577 11.3428 32.3856C11.3428 32.3856 9.60852 32.1287 9.42921 31.2621C9.42921 31.2621 12.3011 29.7786 13.169 28.0927C13.169 28.0927 14.4629 27.635 21.1032 29.5232C26.3822 31.0225 33.833 31.3138 42.8647 30.5964C42.8647 30.5964 42.8389 32.0211 43.8115 33.2378C39.1106 33.0857 33.0096 32.9953 26.3248 32.9953Z" fill="white"/>
<path fill-rule="evenodd" clip-rule="evenodd" d="M10.3995 6.49333C10.602 6.2908 10.9304 6.2908 11.1329 6.49333L15.9735 11.3339C16.176 11.5365 16.176 11.8648 15.9735 12.0673L11.1329 16.9079C10.9304 17.1104 10.602 17.1104 10.3995 16.9079C10.1969 16.7053 10.1969 16.377 10.3995 16.1745L14.8733 11.7006L10.3995 7.22679C10.1969 7.02425 10.1969 6.69587 10.3995 6.49333Z" fill="white"/>
<path fill-rule="evenodd" clip-rule="evenodd" d="M14.5695 16.9456C14.5695 16.6591 14.8017 16.4269 15.0881 16.4269H22.1761C22.4625 16.4269 22.6947 16.6591 22.6947 16.9456C22.6947 17.232 22.4625 17.4642 22.1761 17.4642H15.0881C14.8017 17.4642 14.5695 17.232 14.5695 16.9456Z" fill="white"/>
</svg>
